<?xml version="1.0" encoding="UTF-8" standalone="no"?>
<!DOCTYPE svg PUBLIC "-//W3C//DTD SVG 1.1//EN" "http://www.w3.org/Graphics/SVG/1.1/DTD/svg11.dtd">
<!-- Created with Vectornator (http://vectornator.io/) -->
<svg height="100%" stroke-miterlimit="10" style="fill-rule:nonzero;clip-rule:evenodd;stroke-linecap:round;stroke-linejoin:round;" version="1.1" viewBox="0 0 1331 514" width="100%" xml:space="preserve" xmlns="http://www.w3.org/2000/svg" xmlns:vectornator="http://vectornator.io" xmlns:xlink="http://www.w3.org/1999/xlink">
<defs/>
<g id="Sans-titre" vectornator:layerName="Sans titre">
<g opacity="1" vectornator:layerName="g">
<path d="M63 190.9C63 308 63.1 310 68.9 332.5C79.8 374.3 107 406.8 147 425.9C195.1 448.9 260.7 448.9 308.6 426C348.5 406.8 375.1 374.5 386.4 331.4C392.4 308.2 392.3 310.4 392.7 192.2L393.1 84L375 84L357 84L357 190.1C357 305.3 356.9 306.6 351.4 325.8C345.7 345.5 337.6 360 324.8 373.5C299.8 399.9 269.1 412.2 228 412.1C207 412.1 196.3 410.5 179.4 404.9C143.7 393.2 117.5 366.9 105.6 330.9C98.3 309 98.6 313.8 98.2 192.7L97.9 84L80.5 84L63 84L63 190.9Z" fill="#000000" fill-rule="nonzero" opacity="1" stroke="none" vectornator:layerName="path"/>
<path d="M470 261L470 438L488 438L506 438L506 297.8C506 212.1 506.4 158 506.9 158.6C507.4 159.1 538.8 222.2 576.6 298.7L645.3 438L662.4 437.9L679.5 437.9L704.8 386.2C776.5 239.5 816 159.5 816.9 159.2C817.7 158.9 818 199.2 818 298.4L818 438L835.5 438L853 438L853 261L853 84L833.6 84L814.3 84L811.9 89.4C805.8 103.2 662.4 394 661.7 394C661.3 394 655.6 383.1 649 369.8C642.5 356.4 608.2 286.8 572.7 215L508.1 84.5L489.1 84.2L470 84L470 261Z" fill="#000000" fill-rule="nonzero" opacity="1" stroke="none" vectornator:layerName="path"/>
<path d="M931 260.9L931 438L1002.4 438C1075.5 438 1090.1 437.5 1111.9 433.9C1143.7 428.8 1173.5 417.3 1196 401.2C1208.8 392.1 1225.6 375.7 1235.1 363C1263.6 325.1 1274.2 273.4 1263.9 222.5C1250.4 155.8 1197.1 105.7 1123.7 90.5C1095.8 84.8 1094.7 84.7 1009.8 84.3L931 83.9L931 260.9ZM1110 118.9C1142.3 124.7 1167.7 137.4 1190.5 159.2C1212.7 180.4 1224.9 201.9 1231.2 231.3C1234.4 246.2 1234.3 275.9 1231.1 291C1224.6 321.6 1211.5 344.1 1188 365.3C1169.2 382.3 1146.6 394.1 1121.1 400.1C1101.3 404.9 1094.9 405.2 1028.3 405.7L965 406.2L965 261L965 115.9L1031.3 116.2C1094.8 116.6 1098 116.7 1110 118.9Z" fill="#000000" fill-rule="nonzero" opacity="1" stroke="none" vectornator:layerName="path"/>
</g>
</g>
</svg>
