<?xml version="1.0" standalone="no"?>
<!DOCTYPE svg PUBLIC "-//W3C//DTD SVG 20010904//EN"
 "http://www.w3.org/TR/2001/REC-SVG-20010904/DTD/svg10.dtd">
<svg version="1.0" xmlns="http://www.w3.org/2000/svg"
 width="1331.000000pt" height="514.000000pt" viewBox="0 0 1331.000000 514.000000"
 preserveAspectRatio="xMidYMid meet">

<g transform="translate(0.000000,514.000000) scale(0.100000,-0.100000)"
fill="#000000" stroke="none">
<path d="M30 4031 c0 -1171 1 -1191 59 -1416 109 -418 381 -743 781 -934 481
-230 1137 -230 1616 -1 399 192 665 515 778 946 60 232 59 210 63 1392 l4
1082 -181 0 -180 0 0 -1061 c0 -1152 -1 -1165 -56 -1357 -57 -197 -138 -342
-266 -477 -250 -264 -557 -387 -968 -386 -210 0 -317 16 -486 72 -357 117
-619 380 -738 740 -73 219 -70 171 -74 1382 l-3 1087 -174 0 -175 0 0 -1069z"/>
<path d="M4100 3330 l0 -1770 180 0 180 0 0 1402 c0 857 4 1398 9 1392 5 -5
319 -636 697 -1401 l687 -1393 171 1 171 0 253 517 c717 1467 1112 2267 1121
2270 8 3 11 -400 11 -1392 l0 -1396 175 0 175 0 0 1770 0 1770 -194 0 -193 0
-24 -54 c-61 -138 -1495 -3046 -1502 -3046 -4 0 -61 109 -127 242 -65 134
-408 830 -763 1548 l-646 1305 -190 3 -191 2 0 -1770z"/>
<path d="M8710 3331 l0 -1771 714 0 c731 0 877 5 1095 41 318 51 616 166 841
327 128 91 296 255 391 382 285 379 391 896 288 1405 -135 667 -668 1168
-1402 1320 -279 57 -290 58 -1139 62 l-788 4 0 -1770z m1790 1420 c323 -58
577 -185 805 -403 222 -212 344 -427 407 -721 32 -149 31 -446 -1 -597 -65
-306 -196 -531 -431 -743 -188 -170 -414 -288 -669 -348 -198 -48 -262 -51
-928 -56 l-633 -5 0 1452 0 1451 663 -3 c635 -4 667 -5 787 -27z"/>
<path d="M12565 2770 c-263 -41 -462 -218 -525 -466 -94 -367 156 -732 531
-773 196 -21 368 38 505 174 127 126 186 267 186 445 0 87 -4 119 -26 187 -52
162 -170 298 -321 372 -117 57 -241 79 -350 61z m216 -116 c265 -78 430 -344
375 -604 -53 -251 -260 -424 -506 -424 -300 1 -530 229 -530 525 0 228 143
419 369 496 81 28 211 31 292 7z"/>
<path d="M12380 2161 l0 -351 60 0 60 0 0 145 0 145 98 0 c155 0 167 -4 191
-61 15 -33 21 -69 21 -119 0 -102 6 -110 85 -110 72 0 82 12 49 58 -10 15 -18
58 -23 128 -7 96 -10 107 -36 134 l-29 30 32 33 c36 37 51 97 42 165 -8 57
-36 92 -96 122 -47 24 -59 25 -251 28 l-203 3 0 -350z m393 226 c35 -23 43
-59 26 -115 -14 -43 -17 -47 -64 -59 -28 -7 -92 -13 -142 -13 l-93 0 0 106 0
106 124 -4 c94 -3 129 -8 149 -21z"/>
<path d="M4023 816 c-57 -18 -109 -52 -132 -85 -31 -44 -45 -111 -32 -159 24
-89 77 -120 282 -168 123 -29 167 -54 187 -106 12 -32 12 -40 -6 -80 -27 -61
-81 -88 -178 -88 -93 0 -163 33 -199 94 -14 24 -25 52 -25 64 0 19 -6 22 -46
22 l-46 0 7 -42 c23 -136 135 -218 299 -218 178 0 295 87 296 219 0 115 -69
173 -260 217 -169 39 -220 71 -220 137 0 72 53 116 150 124 100 9 180 -34 200
-108 11 -38 12 -39 56 -39 43 0 44 1 38 28 -20 93 -48 134 -117 169 -63 31
-187 41 -254 19z"/>
<path d="M10830 815 c-120 -33 -184 -112 -178 -216 7 -106 63 -147 263 -194
138 -32 160 -41 190 -77 49 -58 21 -153 -53 -185 -46 -20 -163 -22 -215 -4
-49 17 -104 74 -117 123 -10 36 -13 38 -50 38 -35 0 -40 -3 -40 -22 0 -86 67
-174 158 -209 118 -46 291 -25 369 44 46 40 63 82 63 153 0 111 -54 165 -203
203 -45 12 -111 29 -146 38 -87 22 -126 57 -125 112 2 81 60 123 169 124 98 1
166 -46 182 -123 5 -28 9 -30 51 -30 l45 0 -6 39 c-8 59 -37 111 -80 142 -69
50 -186 69 -277 44z"/>
<path d="M11603 820 c-108 -23 -204 -93 -248 -184 -56 -116 -54 -290 6 -413
56 -115 155 -173 298 -173 98 0 166 20 218 65 47 40 89 118 99 183 l7 42 -46
0 -46 0 -16 -57 c-34 -116 -134 -176 -257 -153 -104 20 -174 100 -198 227 -26
134 18 280 101 342 123 90 295 51 349 -79 11 -28 16 -30 61 -30 l48 0 -9 31
c-25 87 -105 166 -189 189 -59 15 -133 19 -178 10z"/>
<path d="M72 523 c3 -284 3 -289 28 -338 28 -56 90 -108 148 -125 164 -47 330
-1 392 110 25 45 25 46 28 343 l3 297 -45 0 -45 0 -3 -277 c-3 -315 -7 -332
-81 -381 -35 -23 -51 -27 -116 -27 -92 1 -147 25 -182 82 -24 37 -24 44 -27
321 l-3 282 -50 0 -50 0 3 -287z"/>
<path d="M840 435 l0 -375 40 0 40 0 0 300 c0 165 3 300 8 300 4 0 94 -135
201 -300 l194 -300 53 0 54 0 0 375 0 375 -45 0 -45 0 0 -306 c0 -168 -3 -303
-8 -300 -4 2 -95 140 -202 305 l-194 301 -48 0 -48 0 0 -375z"/>
<path d="M1590 430 l0 -380 55 0 55 0 0 380 0 380 -55 0 -55 0 0 -380z"/>
<path d="M1790 803 c1 -5 58 -172 129 -373 l128 -365 58 0 58 0 128 365 c71
201 129 369 129 373 0 4 -21 7 -47 5 l-47 -3 -105 -318 c-58 -174 -109 -317
-113 -317 -3 0 -54 144 -113 320 l-107 320 -49 0 c-27 0 -49 -3 -49 -7z"/>
<path d="M2510 435 l0 -375 260 0 260 0 0 40 0 40 -210 0 -210 0 0 130 0 130
195 0 195 0 0 40 0 40 -195 0 -195 0 0 125 0 125 210 0 210 0 0 40 0 40 -260
0 -260 0 0 -375z"/>
<path d="M3150 436 l0 -376 50 0 50 0 0 160 0 160 144 0 c140 0 145 -1 175
-25 37 -31 47 -64 60 -183 6 -51 13 -97 16 -102 3 -6 28 -10 55 -10 l50 0 -12
28 c-6 15 -14 68 -18 118 -9 111 -35 176 -80 199 l-33 17 41 24 c58 35 86 96
80 178 -5 78 -38 128 -107 160 -41 19 -67 21 -258 24 l-213 4 0 -376z m409
278 c95 -38 105 -164 18 -228 -25 -18 -46 -21 -178 -25 l-149 -3 0 136 0 136
135 0 c99 0 145 -4 174 -16z"/>
<path d="M4756 802 c-6 -10 -286 -732 -286 -738 0 -2 21 -4 48 -4 l47 0 40
108 40 107 164 0 163 0 40 -107 40 -108 53 0 53 0 -36 93 c-20 52 -86 221
-147 375 l-110 282 -52 0 c-28 0 -54 -4 -57 -8z m129 -285 c26 -76 46 -140 43
-143 -3 -2 -59 -3 -126 -2 l-120 3 58 157 c32 86 61 162 65 169 9 14 16 -1 80
-184z"/>
<path d="M5240 435 l0 -375 245 0 245 0 0 40 0 40 -200 0 -200 0 0 335 0 335
-45 0 -45 0 0 -375z"/>
<path d="M6120 435 l0 -375 45 0 45 0 0 303 c1 234 3 297 12 282 7 -11 59
-146 118 -300 l106 -280 40 -3 41 -3 112 298 c62 164 117 305 122 313 5 9 9
-114 9 -297 l0 -313 45 0 45 0 0 375 0 376 -67 -3 -67 -3 -117 -308 c-65 -170
-119 -311 -122 -313 -2 -3 -57 137 -122 311 l-118 315 -63 0 -64 0 0 -375z"/>
<path d="M7030 435 l0 -375 260 0 260 0 0 40 0 40 -215 0 -215 0 0 130 0 130
200 0 200 0 0 40 0 40 -197 2 -198 3 0 120 0 120 208 3 207 2 0 40 0 40 -255
0 -255 0 0 -375z"/>
<path d="M7670 435 l0 -377 183 5 c100 2 199 9 219 16 122 39 192 138 207 296
22 221 -47 362 -202 411 -36 11 -105 18 -229 21 l-178 5 0 -377z m385 271 c87
-37 125 -103 133 -233 7 -113 -16 -196 -70 -258 -51 -58 -106 -75 -245 -75
l-103 0 0 296 0 296 123 -4 c85 -3 134 -10 162 -22z"/>
<path d="M8410 430 l0 -380 55 0 55 0 0 380 0 380 -55 0 -55 0 0 -380z"/>
<path d="M8881 788 c-5 -13 -68 -176 -141 -363 -73 -187 -135 -346 -138 -353
-3 -10 7 -12 44 -10 l49 3 40 108 40 107 164 -2 164 -3 37 -105 37 -105 52 -3
c28 -2 51 0 51 5 0 4 -64 173 -142 375 l-143 368 -53 0 c-45 0 -54 -3 -61 -22z
m127 -255 l60 -163 -130 0 c-100 0 -129 3 -125 13 2 6 30 83 62 170 32 87 62
154 66 150 4 -4 34 -81 67 -170z"/>
<path d="M9650 436 l0 -376 153 0 c180 0 249 12 319 54 62 37 101 90 122 166
52 191 15 375 -92 457 -69 53 -125 65 -324 70 l-178 5 0 -376z m390 267 c95
-42 135 -132 128 -287 -5 -105 -26 -163 -79 -214 -46 -45 -111 -62 -236 -62
l-103 0 0 296 0 296 123 -4 c94 -3 132 -9 167 -25z"/>
<path d="M10400 430 l0 -380 50 0 50 0 0 380 0 380 -50 0 -50 0 0 -380z"/>
</g>
</svg>
